<svg id="aae434ca-db5c-4bae-b939-46a8f10a72b2" data-name="Layer 1" xmlns="http://www.w3.org/2000/svg" viewBox="0 0 24 24"><defs><style>.abda6fa4-46d0-4393-a014-7cd76535d3ad{fill:none;}.a038151a-e352-4262-98fc-ffe429f4a2ed{fill:#3d3d3d;}</style></defs><title>account unselect</title><rect class="abda6fa4-46d0-4393-a014-7cd76535d3ad" x="-636.37" y="-473.67" width="1080" height="1080"/><path class="a038151a-e352-4262-98fc-ffe429f4a2ed" d="M12,1.5a10.49,10.49,0,0,1,8.08,17.19,9.14,9.14,0,0,1-1,1.06,10.48,10.48,0,0,1-14.14,0,9.63,9.63,0,0,1-1-1.07A10.33,10.33,0,0,1,1.5,12,10.51,10.51,0,0,1,12,1.5M12,0A12,12,0,0,0,2.76,19.65a12.14,12.14,0,0,0,1.16,1.22,12,12,0,0,0,16.16,0,11.11,11.11,0,0,0,1.16-1.22A12,12,0,0,0,12,0Z"/><path class="a038151a-e352-4262-98fc-ffe429f4a2ed" d="M12,5.11A2.64,2.64,0,1,1,9.36,7.75,2.64,2.64,0,0,1,12,5.11m0-1.25a3.89,3.89,0,1,0,3.89,3.89A3.89,3.89,0,0,0,12,3.86Z"/><path class="a038151a-e352-4262-98fc-ffe429f4a2ed" d="M12,13a9.71,9.71,0,0,0-9,6.6,12.46,12.46,0,0,0,1.13,1.28A8.34,8.34,0,0,1,12,14.56a8.34,8.34,0,0,1,7.86,6.3A12.46,12.46,0,0,0,21,19.58,9.71,9.71,0,0,0,12,13Z"/></svg>