<svg id="a7c88ee9-6d46-4cc9-9afd-8a494e8b55e9" data-name="Layer 1" xmlns="http://www.w3.org/2000/svg" viewBox="0 0 24 24"><defs><style>.bad81a5f-9696-4aa0-8c95-4fe111484243{fill:#f22f55;}.a646d866-693d-4d8f-ab42-64f330faa021{fill:none;}</style></defs><title>account select</title><path class="bad81a5f-9696-4aa0-8c95-4fe111484243" d="M12,0A12,12,0,1,0,24,12,12,12,0,0,0,12,0Zm8.46,18.48c-.86-3.11-4.32-5.42-8.46-5.42s-7.6,2.31-8.47,5.42A10.67,10.67,0,1,1,22.66,12,10.57,10.57,0,0,1,20.46,18.48Z"/><path class="bad81a5f-9696-4aa0-8c95-4fe111484243" d="M15.89,7.89A3.89,3.89,0,1,1,12,4,3.89,3.89,0,0,1,15.89,7.89Z"/><rect class="a646d866-693d-4d8f-ab42-64f330faa021" x="-636.37" y="-501.45" width="1080" height="1080"/></svg>