<?xml version="1.0" encoding="UTF-8"?>
<svg width="173px" height="50px" viewBox="0 0 173 50" version="1.1" xmlns="http://www.w3.org/2000/svg" xmlns:xlink="http://www.w3.org/1999/xlink">
    <!-- Generator: Sketch 63.1 (92452) - https://sketch.com -->
    <title>logo-dark</title>
    <desc>Created with Sketch.</desc>
    <defs>
        <polygon id="path-1" points="0.221511821 0.0361903614 15.9059335 0.0361903614 15.9059335 21.6144578 0.221511821 21.6144578"></polygon>
        <polygon id="path-3" points="0 45.5704819 171.670288 45.5704819 171.670288 -1.42108547e-14 0 -1.42108547e-14"></polygon>
        <polygon id="path-5" points="0 45.5704819 171.670288 45.5704819 171.670288 -1.42108547e-14 0 -1.42108547e-14"></polygon>
        <polygon id="path-7" points="0 45.5704819 171.670288 45.5704819 171.670288 -1.42108547e-14 0 -1.42108547e-14"></polygon>
        <polygon id="path-9" points="0 45.5704819 171.670288 45.5704819 171.670288 -1.42108547e-14 0 -1.42108547e-14"></polygon>
    </defs>
    <g id="Page-1" stroke="none" stroke-width="1" fill="none" fill-rule="evenodd">
        <g id="logo-dark">
            <path d="M50.7084575,30.0876024 L48.2603425,29.4175542 C47.5355246,29.2341084 47.0519463,28.9298434 47.0519463,28.3806145 C47.0519463,27.7715301 47.6866428,27.4667108 48.4416843,27.4667108 C49.31817,27.4667108 49.9528665,27.8934578 49.9528665,28.8073614 L54.1836268,28.8073614 C54.2440741,25.2415301 51.0106939,23.9917711 48.3510134,23.9917711 C44.9362914,23.9917711 42.5793968,26.125506 42.5793968,28.228759 C42.5793968,29.4175542 42.7002914,31.7945904 46.8403808,32.9218675 L48.6834735,33.4095783 C49.741301,33.6534337 50.073761,33.8668072 50.073761,34.3240361 C50.073761,34.9946386 49.2879463,35.3909036 48.3510134,35.3909036 C47.0816204,35.3909036 46.5683681,34.5678916 46.5683681,33.8668072 L42.3376077,33.8668072 C42.3376077,37.0973373 45.3291987,38.8348072 48.4724575,38.8348072 C51.3129304,38.8348072 54.5463105,37.4326386 54.5463105,34.2935542 C54.5463105,33.3186867 54.2440741,31.0630241 50.7084575,30.0876024" id="Fill-1" fill="#237EDE" fill-rule="nonzero"></path>
            <g id="Group-5" transform="translate(58.798722, 23.956024)">
                <g id="Fill-3-Clipped">
                    <mask id="mask-2" fill="white">
                        <use xlink:href="#path-1"></use>
                    </mask>
                    <g id="path-1"></g>
                    <path d="M8.10933291,10.6727205 C6.41680895,10.6727205 4.84572907,9.30103373 4.84572907,7.44219036 C4.84572907,5.61382892 6.3865853,4.24158795 8.10933291,4.24158795 C9.86175463,4.24158795 11.3729367,5.64375663 11.3729367,7.44219036 C11.3729367,9.27110602 9.86175463,10.6727205 8.10933291,10.6727205 M9.04626581,0.0361903614 C7.59553099,0.0361903614 5.72166518,0.58486506 4.69461086,1.92551566 L4.69461086,0.401973494 L0.221511821,0.401973494 L0.221511821,21.6146241 L4.69461086,21.6146241 L4.69461086,12.989347 C5.72166518,14.2995157 7.59553099,14.8481904 9.04626581,14.8481904 C12.5818824,14.8481904 15.9059335,12.0444072 15.9059335,7.44219036 C15.9059335,2.87045542 12.5818824,0.0361903614 9.04626581,0.0361903614" id="Fill-3" fill="#237EDE" fill-rule="nonzero" mask="url(#mask-2)"></path>
                </g>
            </g>
            <path d="M86.1606249,34.6287446 C84.4082032,34.6287446 82.8970211,33.2271301 82.8970211,31.4286964 C82.8970211,29.6302627 84.4082032,28.2286482 86.1606249,28.2286482 C87.8525994,28.2286482 89.3940051,29.5997807 89.3940051,31.4286964 C89.3940051,33.2570578 87.8833725,34.6287446 86.1606249,34.6287446 L86.1606249,34.6287446 Z M89.575347,25.9120217 C88.5482927,24.5713711 86.6442032,24.0226964 85.1934684,24.0226964 C81.6880754,24.0226964 78.3640243,26.8264795 78.3640243,31.4286964 C78.3640243,36.0309133 81.6880754,38.8346964 85.1934684,38.8346964 C86.6442032,38.8346964 88.5482927,38.2860217 89.575347,36.9453711 L89.575347,38.560359 L94.0176728,38.560359 L94.0176728,24.3579976 L89.575347,24.3579976 L89.575347,25.9120217 Z" id="Fill-6" fill="#237EDE" fill-rule="nonzero"></path>
            <polygon id="Fill-8" fill="#237EDE" fill-rule="nonzero" points="105.322469 31.7028675 102.391325 24.3578313 97.4346479 24.3578313 102.995798 36.884241 99.5200792 45.5704819 104.294865 45.5704819 112.998175 24.3578313 108.193715 24.3578313"></polygon>
            <path d="M123.063857,34.6287446 C121.311435,34.6287446 119.800253,33.2271301 119.800253,31.4286964 C119.800253,29.6302627 121.311435,28.2286482 123.063857,28.2286482 C124.755831,28.2286482 126.297237,29.5997807 126.297237,31.4286964 C126.297237,33.2570578 124.786604,34.6287446 123.063857,34.6287446 L123.063857,34.6287446 Z M126.478579,25.9120217 C125.451525,24.5713711 123.547435,24.0226964 122.0967,24.0226964 C118.591307,24.0226964 115.267256,26.8264795 115.267256,31.4286964 C115.267256,36.0309133 118.591307,38.8346964 122.0967,38.8346964 C123.547435,38.8346964 125.451525,38.2860217 126.478579,36.9453711 L126.478579,38.560359 L130.920905,38.560359 L130.920905,24.3579976 L126.478579,24.3579976 L126.478579,25.9120217 Z" id="Fill-10" fill="#237EDE" fill-rule="nonzero"></path>
            <path d="M141.145178,34.8422843 C140.026904,34.8422843 139.059747,35.6957783 139.059747,36.8535373 C139.059747,38.0118506 140.026904,38.8653446 141.145178,38.8653446 C142.293677,38.8653446 143.260833,38.0118506 143.260833,36.8535373 C143.260833,35.6957783 142.293677,34.8422843 141.145178,34.8422843" id="Fill-12" fill="#18CF9B" fill-rule="nonzero"></path>
            <path d="M154.745268,36.0308024 C152.327926,36.0308024 150.36284,34.0494771 150.36284,31.3981036 C150.36284,28.7162482 152.327926,26.8568506 154.745268,26.8568506 C156.92082,26.8568506 159.247491,28.5333566 159.247491,31.3981036 C159.247491,34.2634048 157.132386,36.0308024 154.745268,36.0308024 L154.745268,36.0308024 Z M159.278265,26.4301036 C158.341332,24.8151157 156.377344,24.0225855 154.382584,24.0225855 C150.574955,24.0225855 147.402022,26.8873325 147.402022,31.4285855 C147.402022,35.9393566 150.574955,38.8650675 154.412808,38.8650675 C156.316348,38.8650675 158.341332,38.0420554 159.278265,36.4270675 L159.278265,38.5602482 L162.239632,38.5602482 L162.239632,24.3274048 L159.278265,24.3274048 L159.278265,26.4301036 Z" id="Fill-14" fill="#18CF9B" fill-rule="nonzero"></path>
            <g id="Fill-16-Clipped">
                <mask id="mask-4" fill="white">
                    <use xlink:href="#path-3"></use>
                </mask>
                <g id="path-3"></g>
                <polygon id="Fill-16" fill="#18CF9B" fill-rule="nonzero" mask="url(#mask-4)" points="168.164895 38.560747 171.126262 38.560747 171.126262 24.3273494 168.164895 24.3273494"></polygon>
            </g>
            <g id="Fill-18-Clipped">
                <mask id="mask-6" fill="white">
                    <use xlink:href="#path-5"></use>
                </mask>
                <g id="path-3"></g>
                <path d="M169.645633,21.0661157 C170.763908,21.0661157 171.670617,20.2431036 171.670617,19.1463084 C171.670617,18.048959 170.763908,17.225947 169.645633,17.225947 C168.558132,17.225947 167.620649,18.048959 167.620649,19.1463084 C167.620649,20.2431036 168.558132,21.0661157 169.645633,21.0661157" id="Fill-18" fill="#18CF9B" fill-rule="nonzero" mask="url(#mask-6)"></path>
            </g>
            <g id="Fill-19-Clipped">
                <mask id="mask-8" fill="white">
                    <use xlink:href="#path-7"></use>
                </mask>
                <g id="path-3"></g>
                <path d="M34.5091348,42.883306 L31.6862466,37.1892819 L18.6867834,10.9681735 L24.1242914,0.000221686747 L21.4481252,0.000221686747 L17.3487003,8.26913735 L13.2492754,0.000221686747 L10.5731093,0.000221686747 L16.0106173,10.9681735 L3.01115399,37.1892819 L0.188265815,42.883306 C-0.398072843,44.066559 0.455332907,45.4587518 1.76703898,45.4587518 L7.38094313,45.4587518 C7.3880869,45.2237639 7.44248946,44.983788 7.5573393,44.7526795 L15.3319591,29.0700048 L13.6910901,25.7602217 C13.4817227,25.3384627 13.7861572,24.8418843 14.2537994,24.8418843 L20.4441508,24.8418843 C20.911793,24.8418843 21.215678,25.3384627 21.0068601,25.7602217 L19.3654415,29.0700048 L27.1406109,44.7526795 C27.2554607,44.983788 27.3093137,45.2237639 27.317007,45.4587518 L32.9309112,45.4587518 C34.2426173,45.4587518 35.0954735,44.066559 34.5091348,42.883306" id="Fill-19" fill="#237EDE" fill-rule="nonzero" mask="url(#mask-8)"></path>
            </g>
            <g id="Fill-20-Clipped">
                <mask id="mask-10" fill="white">
                    <use xlink:href="#path-9"></use>
                </mask>
                <g id="path-3"></g>
                <path d="M22.5160089,44.1619398 L19.8903987,38.8658434 L14.8073316,38.8658434 L12.1817214,44.1619398 C11.8860792,44.7577229 12.3158045,45.4588072 12.9763284,45.4588072 L21.7214019,45.4588072 C22.3819259,45.4588072 22.8111016,44.7577229 22.5160089,44.1619398" id="Fill-20" fill="#18CF9B" fill-rule="nonzero" mask="url(#mask-10)"></path>
            </g>
            <path d="M150.87,50 C152.25,50 153.56,49.45 153.56,47.96 C153.56,46.78 152.85,46.31 151.95,46.15 L151.95,46.13 C152.7,45.98 153.36,45.48 153.36,44.43 C153.36,42.93 152.08,42.6 150.72,42.6 L147.76,42.6 L147.76,50 L150.87,50 Z M150.56,45.65 L149.36,45.65 L149.36,43.86 L150.58,43.86 C151.45,43.86 151.8,44.18 151.8,44.76 C151.8,45.33 151.41,45.65 150.56,45.65 Z M150.67,48.76 L149.36,48.76 L149.36,46.8 L150.6,46.8 C151.5,46.8 151.97,47.12 151.97,47.77 C151.97,48.4 151.57,48.76 150.67,48.76 Z M160.11,50 L160.11,48.68 L156.52,48.68 L156.52,46.84 L158.99,46.84 L158.99,45.55 L156.52,45.55 L156.52,43.96 L159.93,43.96 L159.93,42.6 L154.89,42.6 L154.89,50 L160.11,50 Z M164.51,50 L164.51,43.96 L166.72,43.96 L166.72,42.6 L160.68,42.6 L160.68,43.96 L162.88,43.96 L162.88,50 L164.51,50 Z M167.71,50 L168.28,48.35 L170.8,48.35 L171.35,50 L173,50 L170.38,42.57 L168.83,42.57 L166.21,50 L167.71,50 Z M170.42,47.17 L168.68,47.17 L169.55,44.65 L169.57,44.65 L170.42,47.17 Z" id="BETA" fill="#FF00D5" fill-rule="nonzero"></path>
        </g>
    </g>
</svg>